PathFileType	4	(X/Y/Z)	OpenSim_Sub06_EMGBaseline_Magnet.trc
DataRate	CameraRate	NumFrames	NumMarkers	Units	OrigDataRate	OrigDataStartFrame	OrigNumFrames
100	100	23	8	m	100	7237	8270
Frame#	Time	torso_imu_offset_imu	pelvis_imu_offset_imu	tibia_r_imu_offset_imu	femur_r_imu_offset_imu	tibia_l_imu_offset_imu	femur_l_imu_offset_imu	toes_r_imu_offset_imu	toes_l_imu_offset_imu
				X1	Y1	Z1	X2	Y2	Z2	X3	Y3	Z3	X4	Y4	Z4	X5	Y5	Z5	X6	Y6	Z6	X7	Y7	Z7	X8		Y8	Z8	

7237	72.36000000	-0.93829304	-0.17799123	0.02962018	-0.50352551	0.26481441	-0.73605060	-0.54429167	-0.53782661	-0.28560042	-0.83460456	-0.15501911	0.02820117	-0.61717429	0.52267224	0.18180743	-0.61900292	0.32882178	0.44164624	-0.57712632	-0.29092879	-0.46348144	-0.72042258	-0.09810543	-0.44006758
7238	72.37000000	-0.94156314	-0.18430354	0.02326422	-0.51304056	0.26029811	-0.74256366	-0.56623519	-0.51270537	-0.28790379	-0.83023316	-0.15998568	0.03123271	-0.61724013	0.52894768	0.17962598	-0.62150843	0.33484853	0.43903132	-0.57418521	-0.26755672	-0.48114600	-0.71583252	-0.08930620	-0.43521126
7239	72.38000000	-0.93537038	-0.18156342	0.02841534	-0.50586220	0.26260009	-0.73746431	-0.59196206	-0.48578167	-0.28025265	-0.82781891	-0.17216914	0.03792011	-0.61066560	0.52941640	0.18121881	-0.61683892	0.33966031	0.45136166	-0.57913645	-0.23902156	-0.48134716	-0.71388617	-0.09014094	-0.43575585
7240	72.39000000	-0.93778021	-0.18236075	0.02977665	-0.50477639	0.26258599	-0.73576586	-0.60929978	-0.46571473	-0.27792547	-0.82610478	-0.17870241	0.03621121	-0.61075774	0.53791253	0.17726660	-0.61519291	0.34785699	0.44223978	-0.57983032	-0.21492873	-0.49312772	-0.71685262	-0.08918523	-0.44121697
7241	72.40000000	-0.93512953	-0.18873435	0.02553730	-0.50883908	0.26467738	-0.73806695	-0.62818255	-0.45382813	-0.26008175	-0.82719260	-0.19296991	0.04079459	-0.59899589	0.53812528	0.18548697	-0.61034431	0.34747845	0.44931425	-0.58503719	-0.19032513	-0.50276869	-0.72093664	-0.08050814	-0.44910161
7242	72.41000000	-0.93529915	-0.19005985	0.02377968	-0.50940660	0.26207108	-0.73516256	-0.64136439	-0.44049566	-0.25530649	-0.81835076	-0.19677049	0.03389112	-0.59360104	0.54977254	0.17793796	-0.60601097	0.34799174	0.44663089	-0.58945895	-0.16635422	-0.50034352	-0.72203697	-0.07859605	-0.44495396
7243	72.42000000	-0.93549405	-0.18812287	0.02400409	-0.51761409	0.26043051	-0.73047305	-0.65816516	-0.41706700	-0.25634444	-0.81694465	-0.20731616	0.03434805	-0.59080126	0.55795593	0.18262750	-0.60197237	0.35232933	0.44934767	-0.58905346	-0.14814236	-0.50215717	-0.73279641	-0.07401238	-0.45393802
7244	72.43000000	-0.93745807	-0.18826710	0.02830932	-0.51499608	0.26224598	-0.72590602	-0.66301590	-0.39699883	-0.25929777	-0.81813943	-0.21108518	0.03054166	-0.58244200	0.56207549	0.18407191	-0.59997533	0.35471717	0.45114149	-0.58119285	-0.13488447	-0.51486043	-0.73053526	-0.06949470	-0.45147174
7245	72.44000000	-0.93515444	-0.19080003	0.02833543	-0.51742099	0.25817877	-0.72395325	-0.67313124	-0.38529150	-0.26209449	-0.81227115	-0.21498610	0.04065530	-0.58273717	0.56699237	0.18382862	-0.59771818	0.36144695	0.44859888	-0.57967546	-0.13320442	-0.51815586	-0.73838755	-0.06578580	-0.45350744
7246	72.45000000	-0.93534402	-0.19404880	0.02808646	-0.51935384	0.25786588	-0.72624007	-0.67147848	-0.37889346	-0.26099324	-0.81644694	-0.21208524	0.04645744	-0.57279471	0.57832200	0.18316851	-0.59393317	0.36556691	0.44960047	-0.57956731	-0.12135985	-0.52081011	-0.74675962	-0.06491797	-0.44678280
7247	72.46000000	-0.93561152	-0.18301619	0.02307729	-0.51928622	0.25433349	-0.72592908	-0.68040815	-0.37186828	-0.25094742	-0.81216434	-0.20864424	0.04653653	-0.56061646	0.58627636	0.18005960	-0.59353262	0.36740513	0.46047261	-0.57601977	-0.10947127	-0.52441179	-0.74959161	-0.04944207	-0.44646203
7248	72.47000000	-0.93531380	-0.18475393	0.02216538	-0.52214700	0.25985755	-0.72681578	-0.68105144	-0.38280052	-0.25458759	-0.81241940	-0.21284838	0.05383896	-0.55599855	0.59164546	0.17800642	-0.58714641	0.36780663	0.46008991	-0.57800633	-0.13443458	-0.51460083	-0.75906318	-0.04590913	-0.43782110
7249	72.48000000	-0.93610006	-0.19233752	0.02783230	-0.52752987	0.24626951	-0.73004338	-0.67667735	-0.38890894	-0.24320448	-0.81219180	-0.21021294	0.05812396	-0.54270971	0.60928295	0.17626122	-0.58741869	0.37179338	0.46184480	-0.58417539	-0.16277992	-0.49901047	-0.77116521	-0.04146353	-0.43512171
7250	72.49000000	-0.94394704	-0.18553453	0.01360651	-0.52297758	0.24416907	-0.72340127	-0.67160710	-0.39706660	-0.24871249	-0.80812454	-0.20344446	0.06199811	-0.53491152	0.61755140	0.16702698	-0.58271792	0.36985941	0.45512311	-0.59368001	-0.17902371	-0.48078427	-0.78617415	-0.03444991	-0.42166444
7251	72.50000000	-0.93750680	-0.18636425	0.01105577	-0.52616865	0.25186749	-0.72832529	-0.66147459	-0.40120100	-0.25253675	-0.80876160	-0.19568844	0.05951088	-0.52750553	0.62922621	0.16647491	-0.58346715	0.37397762	0.45586651	-0.59207998	-0.18248460	-0.48042986	-0.78854596	-0.02367042	-0.41455549
7252	72.51000000	-0.94166129	-0.18813388	0.01419012	-0.52956479	0.24249970	-0.72287885	-0.66118263	-0.41286933	-0.25389025	-0.81113696	-0.19612125	0.06207972	-0.51261471	0.64245436	0.16095961	-0.58859188	0.37225360	0.45772114	-0.57859338	-0.20861549	-0.49081620	-0.79853101	-0.01789119	-0.39603954
7253	72.52000000	-0.93526432	-0.18597518	0.00667919	-0.52997733	0.24189974	-0.72080712	-0.65202062	-0.42591479	-0.25474606	-0.81534639	-0.19349685	0.06409548	-0.50373472	0.65261908	0.15829195	-0.59683280	0.37798937	0.45206120	-0.57373565	-0.20861147	-0.49850779	-0.80967155	-0.01535987	-0.38088294
7254	72.53000000	-0.93973585	-0.18869879	0.01962496	-0.53652804	0.24719273	-0.71843483	-0.64569513	-0.42165656	-0.27020521	-0.81441520	-0.18776291	0.06632521	-0.48283137	0.65751042	0.15316705	-0.59433474	0.37177702	0.44449850	-0.57751609	-0.20942306	-0.49737466	-0.82173479	-0.00157515	-0.36369350
7255	72.54000000	-0.93493581	-0.19253039	0.01250240	-0.53850116	0.24163600	-0.71631620	-0.63705389	-0.43586194	-0.27135732	-0.80691038	-0.19042706	0.07117476	-0.46390223	0.67353917	0.15287118	-0.60179892	0.37306665	0.44819002	-0.57348754	-0.21311089	-0.48892806	-0.83520747	0.01037240	-0.32969517
7256	72.55000000	-0.93554459	-0.18952761	0.01262443	-0.54271577	0.25209611	-0.71950418	-0.63217090	-0.45511884	-0.26939330	-0.81048578	-0.19426365	0.07313989	-0.45076465	0.68588729	0.15937678	-0.60967432	0.35969522	0.43440652	-0.57798837	-0.21132569	-0.49048454	-0.84175025	0.01477462	-0.30297211
7257	72.56000000	-0.93794745	-0.18364883	0.01107724	-0.53776346	0.24967144	-0.72383211	-0.62008771	-0.47481337	-0.25292058	-0.80495051	-0.19404428	0.07297366	-0.43022140	0.69534413	0.16705498	-0.61700745	0.35549132	0.43091378	-0.57735296	-0.21268761	-0.49552996	-0.85184975	0.03111902	-0.26866488
7258	72.57000000	-0.93994565	-0.18645257	0.01852843	-0.53422521	0.25924779	-0.72065933	-0.60374239	-0.48626592	-0.24633515	-0.81590744	-0.19411124	0.07100257	-0.40830535	0.71309340	0.16521763	-0.63161124	0.34414907	0.42816340	-0.57583237	-0.20461042	-0.48734805	-0.86299268	0.04705612	-0.23252559
7259	72.58000000	-0.94162204	-0.18806471	0.00352882	-0.53213139	0.26646834	-0.71500084	-0.59899989	-0.51325388	-0.23341497	-0.81650195	-0.19406275	0.07576082	-0.38674518	0.72099062	0.16515622	-0.63782393	0.33260200	0.41666438	-0.58036064	-0.20521224	-0.49030712	-0.86763540	0.05187251	-0.18564689
